HIERARCHY
ROOT ui
{
	 OFFSET 0 0 0
	 CHANNELS 3 XPosition YPosition Z Position
	 EndSite
	 {
	 OFFSET 0 -1 0
	 }
}
ROOT li
{
	 OFFSET 0 0 0
	 CHANNELS 3 XPosition YPosition Z Position
	 EndSite
	 {
	 OFFSET 0 -1 0
	 }
}
ROOT ul
{
	 OFFSET 0 0 0
	 CHANNELS 3 XPosition YPosition Z Position
	 EndSite
	 {
	 OFFSET 0 -1 0
	 }
}
ROOT ll
{
	 OFFSET 0 0 0
	 CHANNELS 3 XPosition YPosition Z Position
	 EndSite
	 {
	 OFFSET 0 -1 0
	 }
}
ROOT tt
{
	 OFFSET 0 0 0
	 CHANNELS 3 XPosition YPosition Z Position
	 EndSite
	 {
	 OFFSET 0 -1 0
	 }
}
ROOT tb
{
	 OFFSET 0 0 0
	 CHANNELS 3 XPosition YPosition Z Position
	 EndSite
	 {
	 OFFSET 0 -1 0
	 }
}
ROOT td
{
	 OFFSET 0 0 0
	 CHANNELS 3 XPosition YPosition Z Position
	 EndSite
	 {
	 OFFSET 0 -1 0
	 }
}
ROOT v
{
	 OFFSET 0 0 0
	 CHANNELS 3 XPosition YPosition Z Position
	 EndSite
	 {
	 OFFSET 0 -1 0
	 }
}
ROOT bn
{
	 OFFSET 0 0 0
	 CHANNELS 3 XPosition YPosition Z Position
	 EndSite
	 {
	 OFFSET 0 -1 0
	 }
}
MOTION
Frames: 16
Frame Time: 0.002
-0.02690467834472656	0.00496491003036499	0		0.5759506225585938	-2.552888671875	0		-1.0366953125	-0.023405601501464843	0		-0.19188706970214844	-3.124317138671875	0		2.517965576171875	-1.5443638916015625	0		3.232762451171875	-0.6807907104492188	0		4.59860400390625	0.08045684051513671	0		5.9854140625	0.5838331298828126	0		-0.3059052429199219	5.9289033203125	0		
0.05313509750366211	-0.00383221697807312	0		0.5741380615234375	-2.55500537109375	0		-1.0464730224609375	-0.022377439498901367	0		-0.29354989624023436	-3.118401123046875	0		2.4991455078125	-1.54611181640625	0		3.240437744140625	-0.65806689453125	0		4.598802734375	0.08034359741210938	0		5.99748876953125	0.560579345703125	0		-0.3209727783203125	5.9190439453125	0		
-0.026492456436157226	0.0046512031555175784	0		0.5982666015625	-2.56063818359375	0		-1.0102675170898439	-0.02327054977416992	0		-0.21550921630859374	-3.12914306640625	0		2.4993720703125	-1.54623828125	0		3.215477783203125	-0.6666744995117188	0		4.60176904296875	0.06817707824707031	0		5.98339306640625	0.5628517456054688	0		-0.3208127746582031	5.918892578125	0		
-0.0043614449501037595	7.183600217103959E-5	0		0.573568115234375	-2.55725537109375	0		-1.0478585205078126	-0.013634963989257813	0		-0.22141180419921874	-3.136151611328125	0		2.497518798828125	-1.550310302734375	0		3.2089052734375	-0.6566423950195313	0		4.59682373046875	0.0601817512512207	0		5.99206103515625	0.5570853271484375	0		-0.18823558044433594	5.93706103515625	0		
-0.021165353775024414	-6.923909783363342E-4	0		0.5836099243164062	-2.5665654296875	0		-1.044564453125	-0.009814234733581543	0		-0.2124480743408203	-3.149445068359375	0		2.467950927734375	-1.53979736328125	0		3.24737939453125	-0.6935235595703125	0		4.6018720703125	0.05199636077880859	0		5.99221240234375	0.5569527587890625	0		-0.15767507934570313	5.95533251953125	0		
0.01115268611907959	0.004563775062561035	0		0.5889465942382812	-2.560755615234375	0		-1.026263916015625	-0.005277482986450195	0		-0.211189208984375	-3.147556884765625	0		2.475384033203125	-1.5290196533203124	0		3.212612548828125	-0.6428729858398438	0		4.6061953125	0.057847095489501954	0		5.9923564453125	0.5568507080078124	0		-0.17268341064453124	5.9465498046875	0		
-6.98315978050232E-4	0.0027420799732208252	0		0.628157958984375	-2.560615234375	0		-1.0159154663085936	0.0024453189373016358	0		-0.21614950561523438	-3.15552099609375	0		2.475578369140625	-1.5290750732421876	0		3.216169921875	-0.6740001831054687	0		4.60911669921875	0.04474296188354492	0		5.99248974609375	0.5567833862304687	0		-0.3049242858886719	5.92817822265625	0		
0.00436697006225586	-0.0024019649028778076	0		0.5754291381835938	-2.555576171875	0		-1.0476590576171876	0.00704970121383667	0		-0.2241503448486328	-3.164400146484375	0		2.475752685546875	-1.5291082763671875	0		3.23350048828125	-0.6663786010742188	0		4.60032763671875	0.0469014892578125	0		5.99260986328125	0.5567510986328125	0		-0.1875799560546875	5.93674609375	0		
-0.0034458880424499514	-2.5819799304008484E-4	0		0.6244090576171875	-2.56459033203125	0		-1.0156025390625	0.0023758130073547362	0		-0.22809628295898438	-3.169337158203125	0		2.441970703125	-1.525426513671875	0		3.255398193359375	-0.6788328247070312	0		4.6060224609375	0.024780031204223632	0		5.99271240234375	0.5567530517578125	0		-0.1884138946533203	5.93874658203125	0		
-0.02524314498901367	0.004195114135742187	0		0.5757049560546875	-2.5555859375	0		-1.0433170166015624	0.010948211669921874	0		-0.23307305908203124	-3.17422900390625	0		2.442091064453125	-1.5254150390625	0		3.2480888671875	-0.6506622314453125	0		4.61026025390625	0.03071381378173828	0		5.99279541015625	0.5567876586914062	0		-0.3055111389160156	5.93013916015625	0		
0.004713990211486816	-0.002384458065032959	0		0.6135817260742188	-2.5663271484375	0		-1.046067626953125	0.019037208557128905	0		-0.23298385620117187	-3.174198486328125	0		2.37539599609375	-1.5140181884765624	0		3.23787158203125	-0.6654209594726562	0		4.62034423828125	0.030545799255371094	0		5.98639501953125	0.5519808349609375	0		-0.17303147888183593	5.948474609375	0		
-0.02510308837890625	0.004281463146209717	0		0.5778873291015625	-2.553540283203125	0		-1.0419326171875	0.023010896682739257	0		-0.23601144409179686	-3.178080810546875	0		2.393405517578125	-1.5163297119140624	0		3.29030224609375	-0.6474302368164062	0		4.6079931640625	0.010848670959472657	0		5.9786337890625	0.5576504516601563	0		-0.31959698486328125	5.9195126953125	0		
0.049865386962890626	8.335570096969604E-4	0		0.6267342529296875	-2.562458251953125	0		-1.0518648681640625	0.02529669189453125	0		-0.25188720703125	-3.1726748046875	0		2.375471923828125	-1.51388720703125	0		3.252252197265625	-0.6505803833007813	0		4.61318017578125	0.018817100524902344	0		5.9786513671875	0.5577704467773438	0		-0.18811968994140624	5.9399189453125	0		
-0.02816246223449707	5.286319851875305E-4	0		0.574815185546875	-2.557296142578125	0		-1.0478077392578125	0.02832243537902832	0		-0.2570218200683594	-3.17846630859375	0		2.3754638671875	-1.5137900390625	0		3.241289794921875	-0.64826220703125	0		4.6179921875	0.009807040214538574	0		5.9875556640625	0.5142188110351562	0		-0.30532452392578124	5.93041162109375	0		
-1.3845999538898468E-4	0.0030848588943481444	0		0.577854248046875	-2.55323291015625	0		-1.0838111572265625	0.030188350677490233	0		-0.24527268981933595	-3.188580078125	0		2.342575927734375	-1.506000732421875	0		3.27590185546875	-0.6658580322265625	0		4.61694091796875	0.008936279296875	0		5.9912451171875	0.5315164184570312	0		-0.15772982788085937	5.95853662109375	0		
-0.020274995803833008	-3.5695400834083555E-4	0		0.5916784057617187	-2.55837060546875	0		-1.0356761474609375	0.03936167907714844	0		-0.24022518920898436	-3.18253271484375	0		2.372687255859375	-1.497475830078125	0		3.2421318359375	-0.60202294921875	0		4.61790185546875	0.01004380702972412	0		5.99120263671875	0.5317265014648438	0		-0.2901827392578125	5.9393837890625	0		
